<?xml version="1.0" encoding="UTF-8"?>
<svg id="Bug" xmlns="http://www.w3.org/2000/svg" viewBox="0 0 156.81 157">
  <defs>
    <style>
      .cls-1 {
        fill: #f0f0f8;
      }
    </style>
  </defs>
  <path class="cls-1" d="M79.6,50.05s24.33,2.3,36.67-21.52c-4.83-2.79-10.01-5.06-15.46-6.7l9.52-12.27c1.97-2.54,1.51-6.19-1.03-8.16s-6.19-1.51-8.16,1.03l-13.01,16.78c-2.8-.32-5.64-.51-8.53-.51s-5.73.18-8.53.51L58.06,2.44c-1.97-2.54-5.62-3-8.16-1.03h0c-2.54,1.97-3,5.62-1.03,8.16l9.52,12.27c-5.45,1.64-10.62,3.91-15.46,6.7,12.34,23.82,36.67,21.52,36.67,21.52Z"/>
  <g>
    <path class="cls-1" d="M71.8,60.94h0c-35.59-2.8-39.64-24.53-39.69-24.79-15.88,13.47-25.96,33.55-25.96,56,0,28.1,15.79,52.5,38.97,64.85,47.58-37.44,26.67-96.06,26.67-96.06Z"/>
    <path class="cls-1" d="M153.04,92.15c0-22.45-10.08-42.53-25.96-56-.05.26-4.1,21.99-39.69,24.78h0s-20.91,58.63,26.67,96.07c23.18-12.35,38.97-36.75,38.97-64.85Z"/>
  </g>
</svg>