<?xml version="1.0" encoding="UTF-8"?>
<svg id="Dragon" xmlns="http://www.w3.org/2000/svg" viewBox="0 0 156.91 157.13">
  <defs>
    <style>
      .cls-1 {
        fill: #f1f1f1;
      }
    </style>
  </defs>
  <path class="cls-1" d="M65.35,90.85c-38.55.47-46.58,11.09-46.74,11.31,6.02,27.5,29.33,48.52,57.97,51.09-32-30.07-11.22-62.4-11.22-62.4Z"/>
  <path class="cls-1" d="M147.76,83.58c-2.18-32.29-28.25-58.44-60.53-60.71-.64-.05-1.28-.06-1.92-.09l.6-.08s4.06-9.52-1.91-21.23c0,0-6.29,18.71-20.95,24.17-25.93,8.06-44.93,31.83-45.91,60.17.4-.2,7.72-3.77,23.78-6.34,3.39-.54,6.81-.87,10.24-.98,8.08-.25,29.04-2.48,36.82-18.63,13.85,4.08,23.99,16.83,23.99,32,0,18.46-14.96,33.42-33.42,33.42-2.81,0-5.53-.39-8.13-1.04,2.28,19.8,28.96,26.87,29.33,26.97,29.15-7.94,50.2-35.51,48.03-67.64ZM37.51,68.36s-1.14-19.96,18.35-18.89c0,0,3.48,18.76-18.35,18.89Z"/>
</svg>