<?xml version="1.0" encoding="UTF-8"?>
<svg id="Fighting" xmlns="http://www.w3.org/2000/svg" viewBox="0 0 146.24 146.24">
  <defs>
    <style>
      .cls-1 {
        fill: #f0f0f8;
      }
    </style>
  </defs>
  <path class="cls-1" d="M116.97,24.13v32.61c0,1.79-1.45,3.24-3.24,3.24h0c-1.79,0-3.24-1.45-3.24-3.24V24.13c0-1.79-1.45-3.24-3.24-3.24h-14.57c-1.79,0-3.24,1.45-3.24,3.24v32.61c0,1.79-1.45,3.24-3.24,3.24h0c-1.79,0-3.24-1.45-3.24-3.24V24.13c0-1.79-1.45-3.24-3.24-3.24h-14.57c-1.79,0-3.24,1.45-3.24,3.24v32.61c0,1.79-1.45,3.24-3.24,3.24h-.09c-1.79,0-3.24-1.45-3.24-3.24V24.13c0-1.79-1.45-3.24-3.24-3.24h-14.57c-1.79,0-3.24,1.45-3.24,3.24v102.26c0,1.79,1.45,3.24,3.24,3.24h97.32c1.79,0,3.24-1.45,3.24-3.24V24.13c0-1.79-1.45-3.24-3.24-3.24h-14.57c-1.79,0-3.24,1.45-3.24,3.24Z"/>
  <path class="cls-1" d="M1.88,92.68l12.2,30.36c2.94,7.31,13.8,5.21,13.8-2.67v-60.72c0-7.88-10.86-9.98-13.8-2.67L1.88,87.34c-.69,1.71-.69,3.63,0,5.34Z"/>
</svg>