<?xml version="1.0" encoding="UTF-8"?>
<svg id="Fire" xmlns="http://www.w3.org/2000/svg" viewBox="0 0 156.91 157.13">
  <defs>
    <style>
      .cls-1 {
        fill: #f0f0f8;
      }
    </style>
  </defs>
  <path class="cls-1" d="M95.75,142.23c-12.29,0-23.34-5.26-31.07-13.64-.12-.12-.23-.25-.35-.38-.14-.15-.28-.31-.42-.46-.48-.53-.93-1.07-1.36-1.64-.02-.02-.04-.04-.05-.07h0c-2.94-3.9-4.7-8.74-4.7-14,0-12.89,10.45-23.34,23.34-23.34s23.34,10.45,23.34,23.34c0,10.38-6.78,19.17-16.15,22.2.73.03,1.46.09,2.2.09,26.84,0,48.59-21.75,48.59-48.59,0-17.47-9.24-32.77-23.09-41.33,2.12,3.08,3.36,6.81,3.36,10.83,0,10.58-8.58,19.16-19.16,19.16s-19.16-8.58-19.16-19.16,8.58-19.16,19.16-19.16c.09-.98.15-1.96.15-2.96,0-16.88-12.5-30.81-28.74-33.12,4.82,3.53,7.96,9.21,7.96,15.64,0,8.36-5.3,15.46-12.71,18.18v.1c-17.35,5.87-29.85,22.27-29.85,41.6,0,5.37.97,10.51,2.73,15.27-4.5-5.84-7.19-13.13-7.19-21.07,0-4.19.74-8.21,2.11-11.93-10.01,11.19-15.85,26.18-15.06,42.54,1.46,30.4,26.26,55.12,56.66,56.48,26.27,1.18,48.97-14.71,58.01-37.5-7.49,13.56-22.27,22.9-38.54,22.9Z"/>
</svg>