<?xml version="1.0" encoding="UTF-8"?>
<svg id="Flying" xmlns="http://www.w3.org/2000/svg" viewBox="0 0 146.24 146.24">
  <defs>
    <style>
      .cls-1 {
        fill: #f0f0f8;
      }
    </style>
  </defs>
  <path class="cls-1" d="M92.57,107.76c-.66-.74-.17-1.9.83-1.97,11.9-.86,29.27-7.52,30.92-16.66,0-.01,0-.02,0-.03.21-1.15-1.63-2.21-2.72-1.41-7.52,5.49-27.61,3.53-35.18,3.53-.6,0-1.05-.53-1.05-1.12,0,0,0-.01,0-.02,0-.57.43-1.05,1-1.12,3.9-.45,17.93-2.29,21.26-2.99,12-2.53,25.25-9.31,25.25-23.24v-.07c0-1.52-1.85-2.25-2.94-1.18-4.63,4.54-12.99,9.87-28.28,8.57l-21.39-1.24c-.61,0-1.11-.49-1.11-1.09,0,0,0,0,0-.01,0-.62.52-1.12,1.15-1.1,48.43,1.39,59.59-22.59,59.59-43.15v-.05c0-2.53-3.09-3.76-4.92-1.97-7.66,7.48-18.19,12.11-29.82,12.11h-44.88s-.08.01-.11.01c-26.36.31-47.41,22.4-45.48,48.87,1.61,22.03,19.47,39.99,41.78,41.96,15.05,1.33,28.78-4.47,38.09-14.37h0s-2-2.26-2-2.26Z"/>
</svg>