<?xml version="1.0" encoding="UTF-8"?>
<svg id="Ghost" xmlns="http://www.w3.org/2000/svg" viewBox="0 0 156.81 156.58">
  <defs>
    <style>
      .cls-1 {
        fill: #f0f0f8;
      }
    </style>
  </defs>
  <path class="cls-1" d="M131.66,132.54c15.19-15.17,24.12-36.62,22.49-60.12C151.53,34.37,120.7,3.55,82.65.92,37.55-2.19,0,33.47,0,77.9c0,36.13,26.12,68.3,61.55,75.59,13.96,2.87,29,1.65,43.15.86,22.35-1.24,31.88-4.47,47.46-8.57-14.99-7.65-14.83-8.53-20.48-13.26h-.02ZM95.34,69.51c10.03,0,18.16-8.13,18.16-18.16,0-1.03-.11-2.04-.27-3.02,7.42,2.28,12.81,9.19,12.81,17.36,0,10.03-8.13,18.16-18.16,18.16-9,0-16.45-6.55-17.89-15.14,1.69.52,3.49.8,5.35.8ZM46.47,83.85c-10.03,0-18.16-8.13-18.16-18.16,0-8.17,5.39-15.07,12.81-17.36-.17.98-.27,1.99-.27,3.02,0,10.03,8.13,18.16,18.16,18.16,1.86,0,3.66-.28,5.35-.8-1.44,8.59-8.89,15.14-17.89,15.14Z"/>
</svg>