<?xml version="1.0" encoding="UTF-8"?>
<svg id="Ice" xmlns="http://www.w3.org/2000/svg" viewBox="0 0 156.91 157">
  <defs>
    <style>
      .cls-1 {
        fill: #f0f0f8;
      }
    </style>
  </defs>
  <polygon class="cls-1" points="74.94 70.05 40.5 49.39 40.5 8.07 74.94 28.73 74.94 70.05"/>
  <polygon class="cls-1" points="74.94 82.04 40.5 102.7 40.5 144.03 74.94 123.36 74.94 82.04"/>
  <polygon class="cls-1" points="82.78 82.04 117.21 102.7 117.21 144.03 82.78 123.36 82.78 82.04"/>
  <polygon class="cls-1" points="82.78 70.05 117.21 49.39 117.21 8.07 82.78 28.73 82.78 70.05"/>
  <polygon class="cls-1" points="71.71 76.05 36.78 96.33 .8 76.01 35.73 56.19 71.71 76.05"/>
  <polygon class="cls-1" points="86 76.05 120.93 96.33 156.91 76.01 121.99 56.19 86 76.05"/>
</svg>