<?xml version="1.0" encoding="UTF-8"?>
<svg id="Leaf" xmlns="http://www.w3.org/2000/svg" viewBox="0 0 156.91 157.13">
  <defs>
    <style>
      .cls-1 {
        fill: #f0f0f8;
      }
    </style>
  </defs>
  <path class="cls-1" d="M133.75,93.58h0s0-.07.02-.18c.39-2.38.62-4.77.7-7.17,1.11-12.81,2.76-40.31-.44-65.73-.23-1.81-1.84-3.15-3.66-3.03-25.57,1.6-52.28,8.36-64.66,11.84-2.34.53-4.65,1.21-6.91,2.03-.11.03-.18.06-.18.06h0c-9.02,3.33-17.32,8.99-23.89,16.93-17.37,20.99-16.98,50.82-.53,71.25l10.12-10.16c1.56-1.56,2.46-3.65,2.54-5.85l1.61-44.57c.02-.53.78-.59.88-.07l6.65,32.36c.47,2.28,3.28,3.12,4.92,1.47l12.69-12.74c1.56-1.57,2.47-3.66,2.54-5.87l1.14-33.45c.02-.51.75-.6.88-.1l5.96,22.64c.57,2.18,3.29,2.91,4.88,1.32l26.66-26.76c.38-.38.99.12.69.57l-21.31,31.19c-1.27,1.86-.04,4.4,2.2,4.55l23.36,1.63c.51.04.57.77.07.88l-32.65,7.37c-2.16.49-4.05,1.77-5.29,3.6l-10.15,14.85c-1.31,1.92.04,4.52,2.36,4.56l33.03.49c.53,0,.61.76.09.88l-43.49,9.9c-2.15.49-4.03,1.77-5.28,3.59l-8.12,11.89-.19-.05c23.24,12.79,53.01,7.73,70.54-13.46,6.57-7.94,10.59-17.15,12.17-26.63Z"/>
</svg>