<?xml version="1.0" encoding="UTF-8"?>
<svg id="Poison" xmlns="http://www.w3.org/2000/svg" viewBox="0 0 146.24 146.24">
  <defs>
    <style>
      .cls-1 {
        fill: #f0f0f8;
      }
    </style>
  </defs>
  <path class="cls-1" d="M137.25,64.26c0-28.86-28.71-52.26-64.13-52.26S8.99,35.4,8.99,64.26c0,16.21,9.06,30.7,23.28,40.29-1.89,3.1-3.02,6.94-3.02,11.11,0,10.26,6.78,18.58,15.14,18.58,6.7,0,12.37-5.34,14.36-12.73,2,7.39,7.67,12.73,14.37,12.73s12.37-5.34,14.36-12.73c2,7.39,7.67,12.73,14.36,12.73,8.36,0,15.14-8.32,15.14-18.58,0-4.17-1.13-8-3.02-11.1,14.22-9.59,23.28-24.07,23.28-40.29ZM73.12,95.67c-22.75,0-41.18-14.06-41.18-31.41s18.44-31.41,41.18-31.41,41.18,14.06,41.18,31.41-18.44,31.41-41.18,31.41Z"/>
</svg>