<?xml version="1.0" encoding="UTF-8"?>
<svg id="Layer_19" data-name="Layer 19" xmlns="http://www.w3.org/2000/svg" viewBox="0 0 156.91 157.18">
  <defs>
    <style>
      .cls-1 {
        fill: #f1f1f1;
      }
    </style>
  </defs>
  <path class="cls-1" d="M107.33,145.84c-12.37.18-20.92.84-31.53-2.34-10.61-3.18-20.82-8.48-28.31-16.65-6.7-7.31-11.43-16.28-15.1-25.45-.82-2.04-1.29-4.2-1.47-6.39-.38-4.47-.48-7.12-.03-11.62.59-6.01,2.33-11.89,4.54-17.52,7.55-19.21,26.22-30.69,46.85-31.34,0,0,27.57-2.38,39.66,20.06,0,0,3.48,6.14,4.95,14.93,1.05,6.33,1.01,13.03-.75,19.2-1.76,6.17-6.23,11.8-11.25,15.79,0,0-15.48,14.29-37.37.73,0,0-12.64-6.87-10.08-26.93,0,0,2.93-14.2,17.5-14.2s14.93,11.82,14.93,11.82c0,0,1.28,7.05-3.94,10.26,0,0-4.12,2.29-9.07-1.1-2.47-1.69-3.76-.96-4.43.19-.8,1.38-.59,3.12.34,4.41,4.36,6.04,13.21,9.86,19.83,6.8,8.41-3.89,11.01-10.67,11.01-10.67,1.6-9.77.32-19.52-5.96-27.18s-16.38-11.27-29.05-9.51c-21.08,2.94-27.37,21.6-27.37,21.6,0,0-8.2,21.55,2.62,38.17,21.18,32.51,62.84,21.97,62.84,21.97,0,0,34.77-11.86,36.92-45.04,2.37-36.66-7.45-52.07-10.68-56.1-.33-.37-.65-.75-.99-1.12,0,0-.02-.02-.02-.02h0C127.54,13.1,106.81,3.38,83.76,3.38,40.39,3.38,5.23,37.81,5.23,80.28s35.16,76.9,78.53,76.9c15.48,0,29.91-4.41,42.07-11.98-6.19.64-12.86.55-18.5.64Z"/>
</svg>