<?xml version="1.0" encoding="UTF-8"?>
<svg id="Water" xmlns="http://www.w3.org/2000/svg" viewBox="0 0 155.76 156.58">
  <defs>
    <style>
      .cls-1 {
        fill: #f0f0f8;
      }
    </style>
  </defs>
  <path class="cls-1" d="M77.92.15v-.15s-.05.05-.07.08c-.02-.02-.07-.08-.07-.08v.15c-2.73,2.82-46.75,48.64-54.71,88.58-.53,2.48-.88,5.01-1.07,7.6,0,.09-.01.18-.02.27-.09,1.28-.15,2.56-.15,3.86,0,30.9,25.05,55.95,55.95,55.95s55.95-25.05,55.95-55.95h.14C133.87,58.36,80.93,3.25,77.92.15ZM77.78,138.13c-18.64,0-33.75-15.11-33.75-33.75,0-9.77,4.17-18.54,10.8-24.7-.23,1.58-.38,3.17-.38,4.81,0,18.64,15.11,33.75,33.75,33.75,8.87,0,16.92-3.45,22.95-9.05-2.34,16.36-16.37,28.94-33.37,28.94Z"/>
</svg>